<mxfile host="Electron" modified="2024-04-10T07:23:11.322Z" agent="Mozilla/5.0 (Macintosh; Intel Mac OS X 10_15_7) AppleWebKit/537.36 (KHTML, like Gecko) draw.io/24.1.0 Chrome/120.0.6099.109 Electron/28.1.0 Safari/537.36" etag="wCBpSzEe6tUeUfL9AHHM" version="24.1.0" type="device">
  <diagram name="Page-1" id="95cnKtvzo_szJ51asuck">
    <mxGraphModel dx="1051" dy="1014" grid="1" gridSize="10" guides="1" tooltips="1" connect="1" arrows="1" fold="1" page="1" pageScale="1" pageWidth="1920" pageHeight="1080" math="0" shadow="0">
      <root>
        <mxCell id="0" />
        <mxCell id="1" parent="0" />
        <mxCell id="rL5AhmuF6cbK-rhVGE2t-21" value="" style="rounded=0;whiteSpace=wrap;html=1;fillStyle=auto;fillColor=#ea6b66;fontFamily=Computer Modern;" parent="1" vertex="1">
          <mxGeometry x="80" y="90" width="120" height="30" as="geometry" />
        </mxCell>
        <mxCell id="rL5AhmuF6cbK-rhVGE2t-23" value="" style="shape=crossbar;whiteSpace=wrap;html=1;rounded=1;" parent="1" vertex="1">
          <mxGeometry x="80" y="130" width="120" height="10" as="geometry" />
        </mxCell>
        <mxCell id="rL5AhmuF6cbK-rhVGE2t-27" value="16 bytes" style="text;html=1;strokeColor=none;fillColor=none;align=center;verticalAlign=middle;whiteSpace=wrap;rounded=0;fontFamily=Computer Modern;fontSize=14;" parent="1" vertex="1">
          <mxGeometry x="110" y="130" width="60" height="30" as="geometry" />
        </mxCell>
        <mxCell id="az6NvpxztQ5JLmLHGQgf-7" value="" style="rounded=0;whiteSpace=wrap;html=1;fillStyle=auto;fillColor=#7EA6E0;fontFamily=Computer Modern;" parent="1" vertex="1">
          <mxGeometry x="200" y="90" width="120" height="30" as="geometry" />
        </mxCell>
        <mxCell id="az6NvpxztQ5JLmLHGQgf-8" value="" style="rounded=0;whiteSpace=wrap;html=1;fillStyle=auto;fillColor=#7EA6E0;fontFamily=Computer Modern;" parent="1" vertex="1">
          <mxGeometry x="320" y="90" width="120" height="30" as="geometry" />
        </mxCell>
        <mxCell id="az6NvpxztQ5JLmLHGQgf-9" value="" style="rounded=0;whiteSpace=wrap;html=1;fillStyle=auto;fillColor=#EA6B66;fontFamily=Computer Modern;" parent="1" vertex="1">
          <mxGeometry x="440" y="90" width="120" height="30" as="geometry" />
        </mxCell>
        <mxCell id="az6NvpxztQ5JLmLHGQgf-11" style="edgeStyle=orthogonalEdgeStyle;rounded=0;orthogonalLoop=1;jettySize=auto;html=1;exitX=0.25;exitY=1;exitDx=0;exitDy=0;entryX=0;entryY=0;entryDx=0;entryDy=0;" parent="1" source="az6NvpxztQ5JLmLHGQgf-10" target="az6NvpxztQ5JLmLHGQgf-7" edge="1">
          <mxGeometry relative="1" as="geometry">
            <Array as="points">
              <mxPoint x="140" y="70" />
              <mxPoint x="200" y="70" />
            </Array>
          </mxGeometry>
        </mxCell>
        <mxCell id="az6NvpxztQ5JLmLHGQgf-10" value="&lt;span style=&quot;font-weight: normal;&quot;&gt;char *&lt;font color=&quot;#7ea6e0&quot;&gt;buffer&lt;/font&gt; = malloc(32);&lt;/span&gt;" style="text;html=1;strokeColor=none;fillColor=none;align=left;verticalAlign=middle;whiteSpace=wrap;rounded=0;fontSize=14;fontFamily=Fira Code;fontStyle=1" parent="1" vertex="1">
          <mxGeometry x="80" y="30" width="240" height="30" as="geometry" />
        </mxCell>
        <mxCell id="az6NvpxztQ5JLmLHGQgf-12" value="&lt;span style=&quot;font-weight: normal;&quot;&gt;&lt;font color=&quot;#7ea6e0&quot;&gt;buffer&lt;/font&gt;[33];&lt;/span&gt;" style="text;html=1;strokeColor=none;fillColor=none;align=left;verticalAlign=middle;whiteSpace=wrap;rounded=0;fontSize=14;fontFamily=Fira Code;fontStyle=1" parent="1" vertex="1">
          <mxGeometry x="80" y="170" width="100" height="30" as="geometry" />
        </mxCell>
        <mxCell id="az6NvpxztQ5JLmLHGQgf-13" style="edgeStyle=orthogonalEdgeStyle;rounded=0;orthogonalLoop=1;jettySize=auto;html=1;entryX=0.109;entryY=1.004;entryDx=0;entryDy=0;entryPerimeter=0;" parent="1" source="az6NvpxztQ5JLmLHGQgf-12" target="az6NvpxztQ5JLmLHGQgf-9" edge="1">
          <mxGeometry relative="1" as="geometry" />
        </mxCell>
        <mxCell id="az6NvpxztQ5JLmLHGQgf-14" value="❌" style="edgeLabel;html=1;align=center;verticalAlign=middle;resizable=0;points=[];fontSize=18;" parent="az6NvpxztQ5JLmLHGQgf-13" vertex="1" connectable="0">
          <mxGeometry x="0.745" y="1" relative="1" as="geometry">
            <mxPoint y="-3" as="offset" />
          </mxGeometry>
        </mxCell>
        <mxCell id="az6NvpxztQ5JLmLHGQgf-15" value="&lt;span style=&quot;font-weight: normal;&quot;&gt;free(&lt;font color=&quot;#7ea6e0&quot;&gt;buffer&lt;/font&gt;);&lt;/span&gt;" style="text;html=1;strokeColor=none;fillColor=none;align=left;verticalAlign=middle;whiteSpace=wrap;rounded=0;fontSize=14;fontFamily=Fira Code;fontStyle=1" parent="1" vertex="1">
          <mxGeometry x="80" y="200" width="130" height="30" as="geometry" />
        </mxCell>
        <mxCell id="az6NvpxztQ5JLmLHGQgf-21" style="edgeStyle=orthogonalEdgeStyle;rounded=0;orthogonalLoop=1;jettySize=auto;html=1;entryX=0.5;entryY=1;entryDx=0;entryDy=0;" parent="1" source="az6NvpxztQ5JLmLHGQgf-16" target="az6NvpxztQ5JLmLHGQgf-18" edge="1">
          <mxGeometry relative="1" as="geometry" />
        </mxCell>
        <mxCell id="az6NvpxztQ5JLmLHGQgf-22" value="&lt;span style=&quot;font-size: 18px;&quot;&gt;❌&lt;/span&gt;" style="edgeLabel;html=1;align=center;verticalAlign=middle;resizable=0;points=[];" parent="az6NvpxztQ5JLmLHGQgf-21" vertex="1" connectable="0">
          <mxGeometry x="0.3063" y="-1" relative="1" as="geometry">
            <mxPoint x="-15" y="-1" as="offset" />
          </mxGeometry>
        </mxCell>
        <mxCell id="az6NvpxztQ5JLmLHGQgf-16" value="&lt;font style=&quot;font-weight: 400;&quot; color=&quot;#7ea6e0&quot;&gt;buffer&lt;/font&gt;&lt;span style=&quot;font-weight: 400;&quot;&gt;[8];&lt;/span&gt;" style="text;html=1;strokeColor=none;fillColor=none;align=left;verticalAlign=middle;whiteSpace=wrap;rounded=0;fontSize=14;fontFamily=Fira Code;fontStyle=1" parent="1" vertex="1">
          <mxGeometry x="80" y="280" width="90" height="30" as="geometry" />
        </mxCell>
        <mxCell id="az6NvpxztQ5JLmLHGQgf-17" value="" style="rounded=0;whiteSpace=wrap;html=1;fillStyle=auto;fillColor=#ea6b66;fontFamily=Computer Modern;" parent="1" vertex="1">
          <mxGeometry x="80" y="240" width="120" height="30" as="geometry" />
        </mxCell>
        <mxCell id="az6NvpxztQ5JLmLHGQgf-18" value="" style="rounded=0;whiteSpace=wrap;html=1;fillStyle=auto;fillColor=#67AB9F;fontFamily=Computer Modern;" parent="1" vertex="1">
          <mxGeometry x="200" y="240" width="120" height="30" as="geometry" />
        </mxCell>
        <mxCell id="az6NvpxztQ5JLmLHGQgf-19" value="" style="rounded=0;whiteSpace=wrap;html=1;fillStyle=auto;fillColor=#67AB9F;fontFamily=Computer Modern;" parent="1" vertex="1">
          <mxGeometry x="320" y="240" width="120" height="30" as="geometry" />
        </mxCell>
        <mxCell id="az6NvpxztQ5JLmLHGQgf-20" value="" style="rounded=0;whiteSpace=wrap;html=1;fillStyle=auto;fillColor=#EA6B66;fontFamily=Computer Modern;" parent="1" vertex="1">
          <mxGeometry x="440" y="240" width="120" height="30" as="geometry" />
        </mxCell>
      </root>
    </mxGraphModel>
  </diagram>
</mxfile>
